# MagicaVoxel @ Ephtracy

# group
g Crops-1

# material
mtllib Crops-1.mtl
usemtl palette

# normals
vn -1 0 0
vn 1 0 0
vn 0 0 1
vn 0 0 -1
vn 0 -1 0
vn 0 1 0

# texcoords
vt 0.365234 0.5
vt 0.384766 0.5
vt 0.419922 0.5
vt 0.431641 0.5
vt 0.955078 0.5

# verts
v -8 0 8
v -8 0 -8
v -8 1 8
v -8 1 -8
v -6 1 1
v -6 1 -0
v -6 2 1
v -6 2 -0
v -6 4 1
v -6 4 -0
v -6 5 1
v -6 5 -0
v -5 1 -3
v -5 1 -4
v -5 2 -3
v -5 2 -4
v -5 3 -3
v -5 3 -4
v -5 5 -3
v -5 5 -4
v -4 4 5
v -4 4 4
v -4 5 5
v -4 5 4
v -3 1 5
v -3 1 4
v -3 2 5
v -3 2 4
v -3 3 5
v -3 3 4
v -3 4 6
v -3 4 5
v -3 4 4
v -3 4 3
v -3 5 6
v -3 5 5
v -3 5 4
v -3 5 3
v -3 6 5
v -3 6 4
v -1 6 -2
v -1 6 -3
v -1 7 -2
v -1 7 -3
v 0 1 -2
v 0 1 -3
v 0 2 -2
v 0 2 -3
v 0 3 -2
v 0 3 -3
v 0 6 -1
v 0 6 -2
v 0 6 -3
v 0 6 -4
v 0 7 -1
v 0 7 -2
v 0 7 -3
v 0 7 -4
v 0 8 -2
v 0 8 -3
v 1 1 3
v 1 1 2
v 1 3 3
v 1 3 2
v 1 4 3
v 1 4 2
v 1 5 3
v 1 5 2
v 4 1 -5
v 4 1 -6
v 4 2 -5
v 4 2 -6
v 4 3 -5
v 4 3 -6
v 4 4 -5
v 4 4 -6
v 4 6 6
v 4 6 5
v 4 7 6
v 4 7 5
v 5 1 6
v 5 1 5
v 5 1 -1
v 5 1 -2
v 5 2 6
v 5 2 5
v 5 2 -1
v 5 2 -2
v 5 3 6
v 5 3 5
v 5 4 -1
v 5 4 -2
v 5 5 -1
v 5 5 -2
v 5 6 7
v 5 6 6
v 5 6 5
v 5 6 4
v 5 7 7
v 5 7 6
v 5 7 5
v 5 7 4
v 5 8 6
v 5 8 5
v -5 1 1
v -5 1 -0
v -5 2 1
v -5 2 -0
v -5 4 1
v -5 4 -0
v -5 5 1
v -5 5 -0
v -4 1 -3
v -4 1 -4
v -4 2 -3
v -4 2 -4
v -4 3 -3
v -4 3 -4
v -4 5 -3
v -4 5 -4
v -2 1 5
v -2 1 4
v -2 2 5
v -2 2 4
v -2 3 5
v -2 3 4
v -2 4 6
v -2 4 5
v -2 4 4
v -2 4 3
v -2 5 6
v -2 5 5
v -2 5 4
v -2 5 3
v -2 6 5
v -2 6 4
v -1 4 5
v -1 4 4
v -1 5 5
v -1 5 4
v 1 1 -2
v 1 1 -3
v 1 2 -2
v 1 2 -3
v 1 3 -2
v 1 3 -3
v 1 6 -1
v 1 6 -2
v 1 6 -3
v 1 6 -4
v 1 7 -1
v 1 7 -2
v 1 7 -3
v 1 7 -4
v 1 8 -2
v 1 8 -3
v 2 1 3
v 2 1 2
v 2 3 3
v 2 3 2
v 2 4 3
v 2 4 2
v 2 5 3
v 2 5 2
v 2 6 -2
v 2 6 -3
v 2 7 -2
v 2 7 -3
v 5 1 -5
v 5 1 -6
v 5 2 -5
v 5 2 -6
v 5 3 -5
v 5 3 -6
v 5 4 -5
v 5 4 -6
v 6 1 6
v 6 1 5
v 6 1 -1
v 6 1 -2
v 6 2 6
v 6 2 5
v 6 2 -1
v 6 2 -2
v 6 3 6
v 6 3 5
v 6 4 -1
v 6 4 -2
v 6 5 -1
v 6 5 -2
v 6 6 7
v 6 6 6
v 6 6 5
v 6 6 4
v 6 7 7
v 6 7 6
v 6 7 5
v 6 7 4
v 6 8 6
v 6 8 5
v 7 6 6
v 7 6 5
v 7 7 6
v 7 7 5
v 8 0 8
v 8 0 -8
v 8 1 8
v 8 1 -8
v -8 0 8
v -8 1 8
v 8 0 8
v 8 1 8
v 5 6 7
v 5 7 7
v 6 6 7
v 6 7 7
v -3 4 6
v -3 5 6
v -2 4 6
v -2 5 6
v 4 6 6
v 4 7 6
v 5 1 6
v 5 2 6
v 5 3 6
v 5 6 6
v 5 7 6
v 5 8 6
v 6 1 6
v 6 2 6
v 6 3 6
v 6 6 6
v 6 7 6
v 6 8 6
v 7 6 6
v 7 7 6
v -4 4 5
v -4 5 5
v -3 1 5
v -3 2 5
v -3 3 5
v -3 4 5
v -3 5 5
v -3 6 5
v -2 1 5
v -2 2 5
v -2 3 5
v -2 4 5
v -2 5 5
v -2 6 5
v -1 4 5
v -1 5 5
v 1 1 3
v 1 3 3
v 1 4 3
v 1 5 3
v 2 1 3
v 2 3 3
v 2 4 3
v 2 5 3
v -6 1 1
v -6 2 1
v -6 4 1
v -6 5 1
v -5 1 1
v -5 2 1
v -5 4 1
v -5 5 1
v 0 6 -1
v 0 7 -1
v 1 6 -1
v 1 7 -1
v 5 1 -1
v 5 2 -1
v 5 4 -1
v 5 5 -1
v 6 1 -1
v 6 2 -1
v 6 4 -1
v 6 5 -1
v -1 6 -2
v -1 7 -2
v 0 1 -2
v 0 2 -2
v 0 3 -2
v 0 6 -2
v 0 7 -2
v 0 8 -2
v 1 1 -2
v 1 2 -2
v 1 3 -2
v 1 6 -2
v 1 7 -2
v 1 8 -2
v 2 6 -2
v 2 7 -2
v -5 1 -3
v -5 2 -3
v -5 3 -3
v -5 5 -3
v -4 1 -3
v -4 2 -3
v -4 3 -3
v -4 5 -3
v 4 1 -5
v 4 2 -5
v 4 3 -5
v 4 4 -5
v 5 1 -5
v 5 2 -5
v 5 3 -5
v 5 4 -5
v 4 6 5
v 4 7 5
v 5 1 5
v 5 2 5
v 5 3 5
v 5 6 5
v 5 7 5
v 5 8 5
v 6 1 5
v 6 2 5
v 6 3 5
v 6 6 5
v 6 7 5
v 6 8 5
v 7 6 5
v 7 7 5
v -4 4 4
v -4 5 4
v -3 1 4
v -3 2 4
v -3 3 4
v -3 4 4
v -3 5 4
v -3 6 4
v -2 1 4
v -2 2 4
v -2 3 4
v -2 4 4
v -2 5 4
v -2 6 4
v -1 4 4
v -1 5 4
v 5 6 4
v 5 7 4
v 6 6 4
v 6 7 4
v -3 4 3
v -3 5 3
v -2 4 3
v -2 5 3
v 1 1 2
v 1 3 2
v 1 4 2
v 1 5 2
v 2 1 2
v 2 3 2
v 2 4 2
v 2 5 2
v -6 1 -0
v -6 2 -0
v -6 4 -0
v -6 5 -0
v -5 1 -0
v -5 2 -0
v -5 4 -0
v -5 5 -0
v 5 1 -2
v 5 2 -2
v 5 4 -2
v 5 5 -2
v 6 1 -2
v 6 2 -2
v 6 4 -2
v 6 5 -2
v -1 6 -3
v -1 7 -3
v 0 1 -3
v 0 2 -3
v 0 3 -3
v 0 6 -3
v 0 7 -3
v 0 8 -3
v 1 1 -3
v 1 2 -3
v 1 3 -3
v 1 6 -3
v 1 7 -3
v 1 8 -3
v 2 6 -3
v 2 7 -3
v -5 1 -4
v -5 2 -4
v -5 3 -4
v -5 5 -4
v -4 1 -4
v -4 2 -4
v -4 3 -4
v -4 5 -4
v 0 6 -4
v 0 7 -4
v 1 6 -4
v 1 7 -4
v 4 1 -6
v 4 2 -6
v 4 3 -6
v 4 4 -6
v 5 1 -6
v 5 2 -6
v 5 3 -6
v 5 4 -6
v -8 0 -8
v -8 1 -8
v 8 0 -8
v 8 1 -8
v -8 0 8
v 8 0 8
v 1 0 3
v 2 0 3
v 1 0 2
v 2 0 2
v -6 0 1
v -5 0 1
v -6 0 -0
v -5 0 -0
v 5 0 -1
v 6 0 -1
v 5 0 -2
v 6 0 -2
v -8 0 -8
v 8 0 -8
v -3 4 6
v -2 4 6
v -4 4 5
v -3 4 5
v -2 4 5
v -1 4 5
v -4 4 4
v -3 4 4
v -2 4 4
v -1 4 4
v -3 4 3
v -2 4 3
v 5 6 7
v 6 6 7
v 4 6 6
v 5 6 6
v 6 6 6
v 7 6 6
v 4 6 5
v 5 6 5
v 6 6 5
v 7 6 5
v 5 6 4
v 6 6 4
v 0 6 -1
v 1 6 -1
v -1 6 -2
v 0 6 -2
v 1 6 -2
v 2 6 -2
v -1 6 -3
v 0 6 -3
v 1 6 -3
v 2 6 -3
v 0 6 -4
v 1 6 -4
v -8 1 8
v 8 1 8
v 5 1 6
v 6 1 6
v -3 1 5
v -2 1 5
v 5 1 5
v 6 1 5
v -3 1 4
v -2 1 4
v 1 1 3
v 2 1 3
v 1 1 2
v 2 1 2
v -6 1 1
v -5 1 1
v -6 1 -0
v -5 1 -0
v 5 1 -1
v 6 1 -1
v 0 1 -2
v 1 1 -2
v 5 1 -2
v 6 1 -2
v -5 1 -3
v -4 1 -3
v 0 1 -3
v 1 1 -3
v -5 1 -4
v -4 1 -4
v 4 1 -5
v 5 1 -5
v 4 1 -6
v 5 1 -6
v -8 1 -8
v 8 1 -8
v 4 4 -5
v 5 4 -5
v 4 4 -6
v 5 4 -6
v -3 5 6
v -2 5 6
v -4 5 5
v -3 5 5
v -2 5 5
v -1 5 5
v -4 5 4
v -3 5 4
v -2 5 4
v -1 5 4
v -3 5 3
v -2 5 3
v 1 5 3
v 2 5 3
v 1 5 2
v 2 5 2
v -6 5 1
v -5 5 1
v -6 5 -0
v -5 5 -0
v 5 5 -1
v 6 5 -1
v 5 5 -2
v 6 5 -2
v -5 5 -3
v -4 5 -3
v -5 5 -4
v -4 5 -4
v -3 6 5
v -2 6 5
v -3 6 4
v -2 6 4
v 5 7 7
v 6 7 7
v 4 7 6
v 5 7 6
v 6 7 6
v 7 7 6
v 4 7 5
v 5 7 5
v 6 7 5
v 7 7 5
v 5 7 4
v 6 7 4
v 0 7 -1
v 1 7 -1
v -1 7 -2
v 0 7 -2
v 1 7 -2
v 2 7 -2
v -1 7 -3
v 0 7 -3
v 1 7 -3
v 2 7 -3
v 0 7 -4
v 1 7 -4
v 5 8 6
v 6 8 6
v 5 8 5
v 6 8 5
v 0 8 -2
v 1 8 -2
v 0 8 -3
v 1 8 -3

# faces
f 3/5/1 2/5/1 1/5/1
f 4/5/1 2/5/1 3/5/1
f 7/2/1 6/2/1 5/2/1
f 8/2/1 6/2/1 7/2/1
f 9/3/1 8/3/1 7/3/1
f 10/3/1 8/3/1 9/3/1
f 11/4/1 10/4/1 9/4/1
f 12/4/1 10/4/1 11/4/1
f 15/1/1 14/1/1 13/1/1
f 16/1/1 14/1/1 15/1/1
f 17/2/1 16/2/1 15/2/1
f 18/2/1 16/2/1 17/2/1
f 19/3/1 18/3/1 17/3/1
f 20/3/1 18/3/1 19/3/1
f 23/3/1 22/3/1 21/3/1
f 24/3/1 22/3/1 23/3/1
f 27/1/1 26/1/1 25/1/1
f 28/1/1 26/1/1 27/1/1
f 29/2/1 28/2/1 27/2/1
f 30/2/1 28/2/1 29/2/1
f 32/3/1 30/3/1 29/3/1
f 33/3/1 30/3/1 32/3/1
f 35/3/1 32/3/1 31/3/1
f 36/3/1 32/3/1 35/3/1
f 37/3/1 34/3/1 33/3/1
f 38/3/1 34/3/1 37/3/1
f 39/3/1 37/3/1 36/3/1
f 40/3/1 37/3/1 39/3/1
f 43/3/1 42/3/1 41/3/1
f 44/3/1 42/3/1 43/3/1
f 47/1/1 46/1/1 45/1/1
f 48/1/1 46/1/1 47/1/1
f 49/2/1 48/2/1 47/2/1
f 50/2/1 48/2/1 49/2/1
f 52/3/1 50/3/1 49/3/1
f 53/3/1 50/3/1 52/3/1
f 55/3/1 52/3/1 51/3/1
f 56/3/1 52/3/1 55/3/1
f 57/3/1 54/3/1 53/3/1
f 58/3/1 54/3/1 57/3/1
f 59/3/1 57/3/1 56/3/1
f 60/3/1 57/3/1 59/3/1
f 63/3/1 62/3/1 61/3/1
f 64/3/1 62/3/1 63/3/1
f 65/4/1 64/4/1 63/4/1
f 66/4/1 64/4/1 65/4/1
f 67/3/1 66/3/1 65/3/1
f 68/3/1 66/3/1 67/3/1
f 71/1/1 70/1/1 69/1/1
f 72/1/1 70/1/1 71/1/1
f 73/2/1 72/2/1 71/2/1
f 74/2/1 72/2/1 73/2/1
f 75/3/1 74/3/1 73/3/1
f 76/3/1 74/3/1 75/3/1
f 79/3/1 78/3/1 77/3/1
f 80/3/1 78/3/1 79/3/1
f 85/1/1 82/1/1 81/1/1
f 86/1/1 82/1/1 85/1/1
f 87/2/1 84/2/1 83/2/1
f 88/2/1 84/2/1 87/2/1
f 89/2/1 86/2/1 85/2/1
f 90/2/1 86/2/1 89/2/1
f 91/3/1 88/3/1 87/3/1
f 92/3/1 88/3/1 91/3/1
f 93/4/1 92/4/1 91/4/1
f 94/4/1 92/4/1 93/4/1
f 96/3/1 90/3/1 89/3/1
f 97/3/1 90/3/1 96/3/1
f 99/3/1 96/3/1 95/3/1
f 100/3/1 96/3/1 99/3/1
f 101/3/1 98/3/1 97/3/1
f 102/3/1 98/3/1 101/3/1
f 103/3/1 101/3/1 100/3/1
f 104/3/1 101/3/1 103/3/1
f 105/2/2 106/2/2 107/2/2
f 107/2/2 106/2/2 108/2/2
f 107/3/2 108/3/2 109/3/2
f 109/3/2 108/3/2 110/3/2
f 109/4/2 110/4/2 111/4/2
f 111/4/2 110/4/2 112/4/2
f 113/1/2 114/1/2 115/1/2
f 115/1/2 114/1/2 116/1/2
f 115/2/2 116/2/2 117/2/2
f 117/2/2 116/2/2 118/2/2
f 117/3/2 118/3/2 119/3/2
f 119/3/2 118/3/2 120/3/2
f 121/1/2 122/1/2 123/1/2
f 123/1/2 122/1/2 124/1/2
f 123/2/2 124/2/2 125/2/2
f 125/2/2 124/2/2 126/2/2
f 125/3/2 126/3/2 128/3/2
f 128/3/2 126/3/2 129/3/2
f 127/3/2 128/3/2 131/3/2
f 131/3/2 128/3/2 132/3/2
f 129/3/2 130/3/2 133/3/2
f 133/3/2 130/3/2 134/3/2
f 132/3/2 133/3/2 135/3/2
f 135/3/2 133/3/2 136/3/2
f 137/3/2 138/3/2 139/3/2
f 139/3/2 138/3/2 140/3/2
f 141/1/2 142/1/2 143/1/2
f 143/1/2 142/1/2 144/1/2
f 143/2/2 144/2/2 145/2/2
f 145/2/2 144/2/2 146/2/2
f 145/3/2 146/3/2 148/3/2
f 148/3/2 146/3/2 149/3/2
f 147/3/2 148/3/2 151/3/2
f 151/3/2 148/3/2 152/3/2
f 149/3/2 150/3/2 153/3/2
f 153/3/2 150/3/2 154/3/2
f 152/3/2 153/3/2 155/3/2
f 155/3/2 153/3/2 156/3/2
f 157/3/2 158/3/2 159/3/2
f 159/3/2 158/3/2 160/3/2
f 159/4/2 160/4/2 161/4/2
f 161/4/2 160/4/2 162/4/2
f 161/3/2 162/3/2 163/3/2
f 163/3/2 162/3/2 164/3/2
f 165/3/2 166/3/2 167/3/2
f 167/3/2 166/3/2 168/3/2
f 169/1/2 170/1/2 171/1/2
f 171/1/2 170/1/2 172/1/2
f 171/2/2 172/2/2 173/2/2
f 173/2/2 172/2/2 174/2/2
f 173/3/2 174/3/2 175/3/2
f 175/3/2 174/3/2 176/3/2
f 177/1/2 178/1/2 181/1/2
f 181/1/2 178/1/2 182/1/2
f 179/2/2 180/2/2 183/2/2
f 183/2/2 180/2/2 184/2/2
f 181/2/2 182/2/2 185/2/2
f 185/2/2 182/2/2 186/2/2
f 183/3/2 184/3/2 187/3/2
f 187/3/2 184/3/2 188/3/2
f 187/4/2 188/4/2 189/4/2
f 189/4/2 188/4/2 190/4/2
f 185/3/2 186/3/2 192/3/2
f 192/3/2 186/3/2 193/3/2
f 191/3/2 192/3/2 195/3/2
f 195/3/2 192/3/2 196/3/2
f 193/3/2 194/3/2 197/3/2
f 197/3/2 194/3/2 198/3/2
f 196/3/2 197/3/2 199/3/2
f 199/3/2 197/3/2 200/3/2
f 201/3/2 202/3/2 203/3/2
f 203/3/2 202/3/2 204/3/2
f 205/5/2 206/5/2 207/5/2
f 207/5/2 206/5/2 208/5/2
f 211/5/3 210/5/3 209/5/3
f 212/5/3 210/5/3 211/5/3
f 215/3/3 214/3/3 213/3/3
f 216/3/3 214/3/3 215/3/3
f 219/3/3 218/3/3 217/3/3
f 220/3/3 218/3/3 219/3/3
f 226/3/3 222/3/3 221/3/3
f 227/3/3 222/3/3 226/3/3
f 229/1/3 224/1/3 223/1/3
f 230/2/3 225/2/3 224/2/3
f 230/1/3 224/1/3 229/1/3
f 231/3/3 226/3/3 225/3/3
f 231/2/3 225/2/3 230/2/3
f 232/3/3 226/3/3 231/3/3
f 233/3/3 228/3/3 227/3/3
f 234/3/3 228/3/3 233/3/3
f 235/3/3 233/3/3 232/3/3
f 236/3/3 233/3/3 235/3/3
f 242/3/3 238/3/3 237/3/3
f 243/3/3 238/3/3 242/3/3
f 245/1/3 240/1/3 239/1/3
f 246/2/3 241/2/3 240/2/3
f 246/1/3 240/1/3 245/1/3
f 247/3/3 242/3/3 241/3/3
f 247/2/3 241/2/3 246/2/3
f 248/3/3 242/3/3 247/3/3
f 249/3/3 244/3/3 243/3/3
f 250/3/3 244/3/3 249/3/3
f 251/3/3 249/3/3 248/3/3
f 252/3/3 249/3/3 251/3/3
f 257/3/3 254/3/3 253/3/3
f 258/4/3 255/4/3 254/4/3
f 258/3/3 254/3/3 257/3/3
f 259/3/3 256/3/3 255/3/3
f 259/4/3 255/4/3 258/4/3
f 260/3/3 256/3/3 259/3/3
f 265/2/3 262/2/3 261/2/3
f 266/3/3 263/3/3 262/3/3
f 266/2/3 262/2/3 265/2/3
f 267/4/3 264/4/3 263/4/3
f 267/3/3 263/3/3 266/3/3
f 268/4/3 264/4/3 267/4/3
f 271/3/3 270/3/3 269/3/3
f 272/3/3 270/3/3 271/3/3
f 277/2/3 274/2/3 273/2/3
f 278/3/3 275/3/3 274/3/3
f 278/2/3 274/2/3 277/2/3
f 279/4/3 276/4/3 275/4/3
f 279/3/3 275/3/3 278/3/3
f 280/4/3 276/4/3 279/4/3
f 286/3/3 282/3/3 281/3/3
f 287/3/3 282/3/3 286/3/3
f 289/1/3 284/1/3 283/1/3
f 290/2/3 285/2/3 284/2/3
f 290/1/3 284/1/3 289/1/3
f 291/3/3 286/3/3 285/3/3
f 291/2/3 285/2/3 290/2/3
f 292/3/3 286/3/3 291/3/3
f 293/3/3 288/3/3 287/3/3
f 294/3/3 288/3/3 293/3/3
f 295/3/3 293/3/3 292/3/3
f 296/3/3 293/3/3 295/3/3
f 301/1/3 298/1/3 297/1/3
f 302/2/3 299/2/3 298/2/3
f 302/1/3 298/1/3 301/1/3
f 303/3/3 300/3/3 299/3/3
f 303/2/3 299/2/3 302/2/3
f 304/3/3 300/3/3 303/3/3
f 309/1/3 306/1/3 305/1/3
f 310/2/3 307/2/3 306/2/3
f 310/1/3 306/1/3 309/1/3
f 311/3/3 308/3/3 307/3/3
f 311/2/3 307/2/3 310/2/3
f 312/3/3 308/3/3 311/3/3
f 313/3/4 314/3/4 318/3/4
f 318/3/4 314/3/4 319/3/4
f 315/1/4 316/1/4 321/1/4
f 316/2/4 317/2/4 322/2/4
f 321/1/4 316/1/4 322/1/4
f 317/3/4 318/3/4 323/3/4
f 322/2/4 317/2/4 323/2/4
f 323/3/4 318/3/4 324/3/4
f 319/3/4 320/3/4 325/3/4
f 325/3/4 320/3/4 326/3/4
f 324/3/4 325/3/4 327/3/4
f 327/3/4 325/3/4 328/3/4
f 329/3/4 330/3/4 334/3/4
f 334/3/4 330/3/4 335/3/4
f 331/1/4 332/1/4 337/1/4
f 332/2/4 333/2/4 338/2/4
f 337/1/4 332/1/4 338/1/4
f 333/3/4 334/3/4 339/3/4
f 338/2/4 333/2/4 339/2/4
f 339/3/4 334/3/4 340/3/4
f 335/3/4 336/3/4 341/3/4
f 341/3/4 336/3/4 342/3/4
f 340/3/4 341/3/4 343/3/4
f 343/3/4 341/3/4 344/3/4
f 345/3/4 346/3/4 347/3/4
f 347/3/4 346/3/4 348/3/4
f 349/3/4 350/3/4 351/3/4
f 351/3/4 350/3/4 352/3/4
f 353/3/4 354/3/4 357/3/4
f 354/4/4 355/4/4 358/4/4
f 357/3/4 354/3/4 358/3/4
f 355/3/4 356/3/4 359/3/4
f 358/4/4 355/4/4 359/4/4
f 359/3/4 356/3/4 360/3/4
f 361/2/4 362/2/4 365/2/4
f 362/3/4 363/3/4 366/3/4
f 365/2/4 362/2/4 366/2/4
f 363/4/4 364/4/4 367/4/4
f 366/3/4 363/3/4 367/3/4
f 367/4/4 364/4/4 368/4/4
f 369/2/4 370/2/4 373/2/4
f 370/3/4 371/3/4 374/3/4
f 373/2/4 370/2/4 374/2/4
f 371/4/4 372/4/4 375/4/4
f 374/3/4 371/3/4 375/3/4
f 375/4/4 372/4/4 376/4/4
f 377/3/4 378/3/4 382/3/4
f 382/3/4 378/3/4 383/3/4
f 379/1/4 380/1/4 385/1/4
f 380/2/4 381/2/4 386/2/4
f 385/1/4 380/1/4 386/1/4
f 381/3/4 382/3/4 387/3/4
f 386/2/4 381/2/4 387/2/4
f 387/3/4 382/3/4 388/3/4
f 383/3/4 384/3/4 389/3/4
f 389/3/4 384/3/4 390/3/4
f 388/3/4 389/3/4 391/3/4
f 391/3/4 389/3/4 392/3/4
f 393/1/4 394/1/4 397/1/4
f 394/2/4 395/2/4 398/2/4
f 397/1/4 394/1/4 398/1/4
f 395/3/4 396/3/4 399/3/4
f 398/2/4 395/2/4 399/2/4
f 399/3/4 396/3/4 400/3/4
f 401/3/4 402/3/4 403/3/4
f 403/3/4 402/3/4 404/3/4
f 405/1/4 406/1/4 409/1/4
f 406/2/4 407/2/4 410/2/4
f 409/1/4 406/1/4 410/1/4
f 407/3/4 408/3/4 411/3/4
f 410/2/4 407/2/4 411/2/4
f 411/3/4 408/3/4 412/3/4
f 413/5/4 414/5/4 415/5/4
f 415/5/4 414/5/4 416/5/4
f 419/5/5 418/5/5 417/5/5
f 420/5/5 418/5/5 419/5/5
f 421/5/5 419/5/5 417/5/5
f 421/2/5 420/2/5 419/2/5
f 422/5/5 418/5/5 420/5/5
f 422/2/5 420/2/5 421/2/5
f 423/5/5 421/5/5 417/5/5
f 423/5/5 422/5/5 421/5/5
f 424/5/5 422/5/5 423/5/5
f 425/5/5 423/5/5 417/5/5
f 425/1/5 424/1/5 423/1/5
f 426/5/5 422/5/5 424/5/5
f 426/1/5 424/1/5 425/1/5
f 427/5/5 418/5/5 422/5/5
f 427/5/5 422/5/5 426/5/5
f 427/5/5 426/5/5 425/5/5
f 428/5/5 418/5/5 427/5/5
f 429/5/5 427/5/5 425/5/5
f 429/1/5 428/1/5 427/1/5
f 430/5/5 418/5/5 428/5/5
f 430/1/5 428/1/5 429/1/5
f 431/5/5 425/5/5 417/5/5
f 431/5/5 429/5/5 425/5/5
f 431/5/5 430/5/5 429/5/5
f 432/5/5 418/5/5 430/5/5
f 432/5/5 430/5/5 431/5/5
f 436/3/5 434/3/5 433/3/5
f 437/3/5 434/3/5 436/3/5
f 439/3/5 436/3/5 435/3/5
f 440/3/5 436/3/5 439/3/5
f 441/3/5 438/3/5 437/3/5
f 442/3/5 438/3/5 441/3/5
f 443/3/5 441/3/5 440/3/5
f 444/3/5 441/3/5 443/3/5
f 448/3/5 446/3/5 445/3/5
f 449/3/5 446/3/5 448/3/5
f 451/3/5 448/3/5 447/3/5
f 452/3/5 448/3/5 451/3/5
f 453/3/5 450/3/5 449/3/5
f 454/3/5 450/3/5 453/3/5
f 455/3/5 453/3/5 452/3/5
f 456/3/5 453/3/5 455/3/5
f 460/3/5 458/3/5 457/3/5
f 461/3/5 458/3/5 460/3/5
f 463/3/5 460/3/5 459/3/5
f 464/3/5 460/3/5 463/3/5
f 465/3/5 462/3/5 461/3/5
f 466/3/5 462/3/5 465/3/5
f 467/3/5 465/3/5 464/3/5
f 468/3/5 465/3/5 467/3/5
f 469/5/6 470/5/6 471/5/6
f 471/5/6 470/5/6 472/5/6
f 469/5/6 471/5/6 473/5/6
f 473/5/6 471/5/6 474/5/6
f 474/5/6 471/5/6 475/5/6
f 472/5/6 470/5/6 476/5/6
f 469/5/6 473/5/6 477/5/6
f 474/5/6 475/5/6 478/5/6
f 475/5/6 476/5/6 478/5/6
f 478/5/6 476/5/6 479/5/6
f 477/5/6 478/5/6 479/5/6
f 479/5/6 476/5/6 480/5/6
f 477/5/6 479/5/6 481/5/6
f 480/5/6 476/5/6 482/5/6
f 469/5/6 477/5/6 483/5/6
f 481/5/6 482/5/6 483/5/6
f 477/5/6 481/5/6 483/5/6
f 483/5/6 482/5/6 484/5/6
f 469/5/6 483/5/6 485/5/6
f 484/5/6 482/5/6 486/5/6
f 482/5/6 476/5/6 487/5/6
f 485/5/6 486/5/6 487/5/6
f 486/5/6 482/5/6 487/5/6
f 476/5/6 470/5/6 488/5/6
f 487/5/6 476/5/6 488/5/6
f 485/5/6 487/5/6 489/5/6
f 489/5/6 487/5/6 490/5/6
f 490/5/6 487/5/6 491/5/6
f 488/5/6 470/5/6 492/5/6
f 485/5/6 489/5/6 493/5/6
f 493/5/6 489/5/6 494/5/6
f 494/5/6 489/5/6 495/5/6
f 490/5/6 491/5/6 496/5/6
f 491/5/6 492/5/6 496/5/6
f 485/5/6 493/5/6 497/5/6
f 494/5/6 495/5/6 498/5/6
f 495/5/6 496/5/6 498/5/6
f 496/5/6 492/5/6 499/5/6
f 497/5/6 498/5/6 499/5/6
f 498/5/6 496/5/6 499/5/6
f 499/5/6 492/5/6 500/5/6
f 497/5/6 499/5/6 501/5/6
f 500/5/6 492/5/6 502/5/6
f 485/5/6 497/5/6 503/5/6
f 501/5/6 502/5/6 503/5/6
f 469/5/6 485/5/6 503/5/6
f 497/5/6 501/5/6 503/5/6
f 502/5/6 492/5/6 504/5/6
f 503/5/6 502/5/6 504/5/6
f 492/5/6 470/5/6 504/5/6
f 505/3/6 506/3/6 507/3/6
f 507/3/6 506/3/6 508/3/6
f 509/3/6 510/3/6 512/3/6
f 512/3/6 510/3/6 513/3/6
f 511/3/6 512/3/6 515/3/6
f 515/3/6 512/3/6 516/3/6
f 513/3/6 514/3/6 517/3/6
f 517/3/6 514/3/6 518/3/6
f 516/3/6 517/3/6 519/3/6
f 519/3/6 517/3/6 520/3/6
f 521/3/6 522/3/6 523/3/6
f 523/3/6 522/3/6 524/3/6
f 525/4/6 526/4/6 527/4/6
f 527/4/6 526/4/6 528/4/6
f 529/4/6 530/4/6 531/4/6
f 531/4/6 530/4/6 532/4/6
f 533/3/6 534/3/6 535/3/6
f 535/3/6 534/3/6 536/3/6
f 537/3/6 538/3/6 539/3/6
f 539/3/6 538/3/6 540/3/6
f 541/3/6 542/3/6 544/3/6
f 544/3/6 542/3/6 545/3/6
f 543/3/6 544/3/6 547/3/6
f 547/3/6 544/3/6 548/3/6
f 545/3/6 546/3/6 549/3/6
f 549/3/6 546/3/6 550/3/6
f 548/3/6 549/3/6 551/3/6
f 551/3/6 549/3/6 552/3/6
f 553/3/6 554/3/6 556/3/6
f 556/3/6 554/3/6 557/3/6
f 555/3/6 556/3/6 559/3/6
f 559/3/6 556/3/6 560/3/6
f 557/3/6 558/3/6 561/3/6
f 561/3/6 558/3/6 562/3/6
f 560/3/6 561/3/6 563/3/6
f 563/3/6 561/3/6 564/3/6
f 565/3/6 566/3/6 567/3/6
f 567/3/6 566/3/6 568/3/6
f 569/3/6 570/3/6 571/3/6
f 571/3/6 570/3/6 572/3/6
