# MagicaVoxel @ Ephtracy

# group
g Crops-2

# material
mtllib Crops-2.mtl
usemtl palette

# normals
vn -1 0 0
vn 1 0 0
vn 0 0 1
vn 0 0 -1
vn 0 -1 0
vn 0 1 0

# texcoords
vt 0.365234 0.5
vt 0.384766 0.5
vt 0.419922 0.5
vt 0.955078 0.5

# verts
v -8 0 8
v -8 0 -8
v -8 1 8
v -8 1 -8
v -6 1 1
v -6 1 -0
v -6 2 1
v -6 2 -0
v -5 1 -3
v -5 1 -4
v -5 3 -3
v -5 3 -4
v -3 1 5
v -3 1 4
v -3 2 5
v -3 2 4
v 0 1 -2
v 0 1 -3
v 0 3 -2
v 0 3 -3
v 1 1 3
v 1 1 2
v 1 5 3
v 1 5 2
v 4 1 -5
v 4 1 -6
v 4 2 -5
v 4 2 -6
v 5 1 6
v 5 1 5
v 5 1 -1
v 5 1 -2
v 5 3 6
v 5 3 5
v 5 3 -1
v 5 3 -2
v -5 1 1
v -5 1 -0
v -5 2 1
v -5 2 -0
v -4 1 -3
v -4 1 -4
v -4 3 -3
v -4 3 -4
v -2 1 5
v -2 1 4
v -2 2 5
v -2 2 4
v 1 1 -2
v 1 1 -3
v 1 3 -2
v 1 3 -3
v 2 1 3
v 2 1 2
v 2 5 3
v 2 5 2
v 5 1 -5
v 5 1 -6
v 5 2 -5
v 5 2 -6
v 6 1 6
v 6 1 5
v 6 1 -1
v 6 1 -2
v 6 3 6
v 6 3 5
v 6 3 -1
v 6 3 -2
v 8 0 8
v 8 0 -8
v 8 1 8
v 8 1 -8
v -8 0 8
v -8 1 8
v 8 0 8
v 8 1 8
v 5 1 6
v 5 3 6
v 6 1 6
v 6 3 6
v -3 1 5
v -3 2 5
v -2 1 5
v -2 2 5
v 1 1 3
v 1 5 3
v 2 1 3
v 2 5 3
v -6 1 1
v -6 2 1
v -5 1 1
v -5 2 1
v 5 1 -1
v 5 3 -1
v 6 1 -1
v 6 3 -1
v 0 1 -2
v 0 3 -2
v 1 1 -2
v 1 3 -2
v -5 1 -3
v -5 3 -3
v -4 1 -3
v -4 3 -3
v 4 1 -5
v 4 2 -5
v 5 1 -5
v 5 2 -5
v 5 1 5
v 5 3 5
v 6 1 5
v 6 3 5
v -3 1 4
v -3 2 4
v -2 1 4
v -2 2 4
v 1 1 2
v 1 5 2
v 2 1 2
v 2 5 2
v -6 1 -0
v -6 2 -0
v -5 1 -0
v -5 2 -0
v 5 1 -2
v 5 3 -2
v 6 1 -2
v 6 3 -2
v 0 1 -3
v 0 3 -3
v 1 1 -3
v 1 3 -3
v -5 1 -4
v -5 3 -4
v -4 1 -4
v -4 3 -4
v 4 1 -6
v 4 2 -6
v 5 1 -6
v 5 2 -6
v -8 0 -8
v -8 1 -8
v 8 0 -8
v 8 1 -8
v -8 0 8
v 8 0 8
v 1 0 3
v 2 0 3
v 1 0 2
v 2 0 2
v -6 0 1
v -5 0 1
v -6 0 -0
v -5 0 -0
v 5 0 -1
v 6 0 -1
v 5 0 -2
v 6 0 -2
v -8 0 -8
v 8 0 -8
v -8 1 8
v 8 1 8
v 5 1 6
v 6 1 6
v -3 1 5
v -2 1 5
v 5 1 5
v 6 1 5
v -3 1 4
v -2 1 4
v 1 1 3
v 2 1 3
v 1 1 2
v 2 1 2
v -6 1 1
v -5 1 1
v -6 1 -0
v -5 1 -0
v 5 1 -1
v 6 1 -1
v 0 1 -2
v 1 1 -2
v 5 1 -2
v 6 1 -2
v -5 1 -3
v -4 1 -3
v 0 1 -3
v 1 1 -3
v -5 1 -4
v -4 1 -4
v 4 1 -5
v 5 1 -5
v 4 1 -6
v 5 1 -6
v -8 1 -8
v 8 1 -8
v -3 2 5
v -2 2 5
v -3 2 4
v -2 2 4
v -6 2 1
v -5 2 1
v -6 2 -0
v -5 2 -0
v 4 2 -5
v 5 2 -5
v 4 2 -6
v 5 2 -6
v 5 3 6
v 6 3 6
v 5 3 5
v 6 3 5
v 5 3 -1
v 6 3 -1
v 0 3 -2
v 1 3 -2
v 5 3 -2
v 6 3 -2
v -5 3 -3
v -4 3 -3
v 0 3 -3
v 1 3 -3
v -5 3 -4
v -4 3 -4
v 1 5 3
v 2 5 3
v 1 5 2
v 2 5 2

# faces
f 3/4/1 2/4/1 1/4/1
f 4/4/1 2/4/1 3/4/1
f 7/3/1 6/3/1 5/3/1
f 8/3/1 6/3/1 7/3/1
f 11/3/1 10/3/1 9/3/1
f 12/3/1 10/3/1 11/3/1
f 15/3/1 14/3/1 13/3/1
f 16/3/1 14/3/1 15/3/1
f 19/3/1 18/3/1 17/3/1
f 20/3/1 18/3/1 19/3/1
f 23/3/1 22/3/1 21/3/1
f 24/3/1 22/3/1 23/3/1
f 27/3/1 26/3/1 25/3/1
f 28/3/1 26/3/1 27/3/1
f 33/3/1 30/3/1 29/3/1
f 34/3/1 30/3/1 33/3/1
f 35/3/1 32/3/1 31/3/1
f 36/3/1 32/3/1 35/3/1
f 37/3/2 38/3/2 39/3/2
f 39/3/2 38/3/2 40/3/2
f 41/3/2 42/3/2 43/3/2
f 43/3/2 42/3/2 44/3/2
f 45/3/2 46/3/2 47/3/2
f 47/3/2 46/3/2 48/3/2
f 49/3/2 50/3/2 51/3/2
f 51/3/2 50/3/2 52/3/2
f 53/3/2 54/3/2 55/3/2
f 55/3/2 54/3/2 56/3/2
f 57/3/2 58/3/2 59/3/2
f 59/3/2 58/3/2 60/3/2
f 61/3/2 62/3/2 65/3/2
f 65/3/2 62/3/2 66/3/2
f 63/3/2 64/3/2 67/3/2
f 67/3/2 64/3/2 68/3/2
f 69/4/2 70/4/2 71/4/2
f 71/4/2 70/4/2 72/4/2
f 75/4/3 74/4/3 73/4/3
f 76/4/3 74/4/3 75/4/3
f 79/3/3 78/3/3 77/3/3
f 80/3/3 78/3/3 79/3/3
f 83/3/3 82/3/3 81/3/3
f 84/3/3 82/3/3 83/3/3
f 87/3/3 86/3/3 85/3/3
f 88/3/3 86/3/3 87/3/3
f 91/3/3 90/3/3 89/3/3
f 92/3/3 90/3/3 91/3/3
f 95/3/3 94/3/3 93/3/3
f 96/3/3 94/3/3 95/3/3
f 99/3/3 98/3/3 97/3/3
f 100/3/3 98/3/3 99/3/3
f 103/3/3 102/3/3 101/3/3
f 104/3/3 102/3/3 103/3/3
f 107/3/3 106/3/3 105/3/3
f 108/3/3 106/3/3 107/3/3
f 109/3/4 110/3/4 111/3/4
f 111/3/4 110/3/4 112/3/4
f 113/3/4 114/3/4 115/3/4
f 115/3/4 114/3/4 116/3/4
f 117/3/4 118/3/4 119/3/4
f 119/3/4 118/3/4 120/3/4
f 121/3/4 122/3/4 123/3/4
f 123/3/4 122/3/4 124/3/4
f 125/3/4 126/3/4 127/3/4
f 127/3/4 126/3/4 128/3/4
f 129/3/4 130/3/4 131/3/4
f 131/3/4 130/3/4 132/3/4
f 133/3/4 134/3/4 135/3/4
f 135/3/4 134/3/4 136/3/4
f 137/3/4 138/3/4 139/3/4
f 139/3/4 138/3/4 140/3/4
f 141/4/4 142/4/4 143/4/4
f 143/4/4 142/4/4 144/4/4
f 147/4/5 146/4/5 145/4/5
f 148/4/5 146/4/5 147/4/5
f 149/4/5 147/4/5 145/4/5
f 149/2/5 148/2/5 147/2/5
f 150/4/5 146/4/5 148/4/5
f 150/2/5 148/2/5 149/2/5
f 151/4/5 149/4/5 145/4/5
f 151/4/5 150/4/5 149/4/5
f 152/4/5 150/4/5 151/4/5
f 153/4/5 151/4/5 145/4/5
f 153/1/5 152/1/5 151/1/5
f 154/4/5 150/4/5 152/4/5
f 154/1/5 152/1/5 153/1/5
f 155/4/5 146/4/5 150/4/5
f 155/4/5 150/4/5 154/4/5
f 155/4/5 154/4/5 153/4/5
f 156/4/5 146/4/5 155/4/5
f 157/4/5 155/4/5 153/4/5
f 157/1/5 156/1/5 155/1/5
f 158/4/5 146/4/5 156/4/5
f 158/1/5 156/1/5 157/1/5
f 159/4/5 153/4/5 145/4/5
f 159/4/5 157/4/5 153/4/5
f 159/4/5 158/4/5 157/4/5
f 160/4/5 146/4/5 158/4/5
f 160/4/5 158/4/5 159/4/5
f 161/4/6 162/4/6 163/4/6
f 163/4/6 162/4/6 164/4/6
f 161/4/6 163/4/6 165/4/6
f 165/4/6 163/4/6 166/4/6
f 166/4/6 163/4/6 167/4/6
f 164/4/6 162/4/6 168/4/6
f 161/4/6 165/4/6 169/4/6
f 166/4/6 167/4/6 170/4/6
f 167/4/6 168/4/6 170/4/6
f 170/4/6 168/4/6 171/4/6
f 169/4/6 170/4/6 171/4/6
f 171/4/6 168/4/6 172/4/6
f 169/4/6 171/4/6 173/4/6
f 172/4/6 168/4/6 174/4/6
f 161/4/6 169/4/6 175/4/6
f 173/4/6 174/4/6 175/4/6
f 169/4/6 173/4/6 175/4/6
f 175/4/6 174/4/6 176/4/6
f 161/4/6 175/4/6 177/4/6
f 176/4/6 174/4/6 178/4/6
f 174/4/6 168/4/6 179/4/6
f 177/4/6 178/4/6 179/4/6
f 178/4/6 174/4/6 179/4/6
f 168/4/6 162/4/6 180/4/6
f 179/4/6 168/4/6 180/4/6
f 177/4/6 179/4/6 181/4/6
f 181/4/6 179/4/6 182/4/6
f 182/4/6 179/4/6 183/4/6
f 180/4/6 162/4/6 184/4/6
f 177/4/6 181/4/6 185/4/6
f 185/4/6 181/4/6 186/4/6
f 186/4/6 181/4/6 187/4/6
f 182/4/6 183/4/6 188/4/6
f 183/4/6 184/4/6 188/4/6
f 177/4/6 185/4/6 189/4/6
f 186/4/6 187/4/6 190/4/6
f 187/4/6 188/4/6 190/4/6
f 188/4/6 184/4/6 191/4/6
f 189/4/6 190/4/6 191/4/6
f 190/4/6 188/4/6 191/4/6
f 191/4/6 184/4/6 192/4/6
f 189/4/6 191/4/6 193/4/6
f 192/4/6 184/4/6 194/4/6
f 177/4/6 189/4/6 195/4/6
f 193/4/6 194/4/6 195/4/6
f 161/4/6 177/4/6 195/4/6
f 189/4/6 193/4/6 195/4/6
f 194/4/6 184/4/6 196/4/6
f 195/4/6 194/4/6 196/4/6
f 184/4/6 162/4/6 196/4/6
f 197/3/6 198/3/6 199/3/6
f 199/3/6 198/3/6 200/3/6
f 201/3/6 202/3/6 203/3/6
f 203/3/6 202/3/6 204/3/6
f 205/3/6 206/3/6 207/3/6
f 207/3/6 206/3/6 208/3/6
f 209/3/6 210/3/6 211/3/6
f 211/3/6 210/3/6 212/3/6
f 213/3/6 214/3/6 217/3/6
f 217/3/6 214/3/6 218/3/6
f 215/3/6 216/3/6 221/3/6
f 221/3/6 216/3/6 222/3/6
f 219/3/6 220/3/6 223/3/6
f 223/3/6 220/3/6 224/3/6
f 225/3/6 226/3/6 227/3/6
f 227/3/6 226/3/6 228/3/6
