# MagicaVoxel @ Ephtracy

# group
g TestMapNoPlatforms

# material
mtllib TestMapNoPlatforms.mtl
usemtl palette

# normals
vn -1 0 0
vn 1 0 0
vn 0 0 1
vn 0 0 -1
vn 0 -1 0
vn 0 1 0

# texcoords
vt 0.712891 0.5
vt 0.716797 0.5
vt 0.896484 0.5
vt 0.900391 0.5

# verts
v -20 0 -16
v -20 0 -17
v -20 4 -12
v -20 4 -16
v -20 21 -13
v -20 21 -14
v -20 22 -13
v -20 22 -14
v -20 26 -12
v -20 26 -17
v -20 28 -12
v -20 28 -17
v -19 0 -17
v -19 0 -20
v -19 26 -17
v -19 28 -16
v -19 28 -17
v -19 30 -16
v -19 30 -20
v -19 33 -16
v -19 33 -20
v -17 5 -3
v -17 5 -10
v -17 10 -3
v -17 10 -4
v -17 11 -3
v -17 11 -4
v -17 23 -3
v -17 23 -6
v -17 23 -8
v -17 23 -10
v -17 24 -3
v -17 24 -6
v -17 24 -8
v -17 24 -10
v -14 8 17
v -14 8 15
v -14 20 17
v -14 20 15
v -14 21 16
v -14 21 15
v -14 22 17
v -14 22 16
v -14 22 15
v -12 7 -1
v -12 7 -10
v -12 15 -1
v -12 15 -2
v -12 16 -1
v -12 16 -2
v -12 21 -1
v -12 21 -10
v -12 23 -1
v -12 23 -10
v -8 8 -12
v -8 8 -14
v -8 26 -12
v -8 26 -14
v -8 28 -12
v -8 28 -14
v -19 4 -12
v -19 4 -16
v -19 5 -16
v -19 21 -13
v -19 21 -14
v -19 22 -13
v -19 22 -14
v -19 25 -16
v -19 26 -12
v -19 26 -16
v -19 28 -12
v -19 28 -16
v -15 5 -3
v -15 5 -10
v -15 17 -3
v -15 17 -5
v -15 18 -3
v -15 18 -5
v -15 23 -3
v -15 23 -4
v -15 23 -5
v -15 23 -10
v -15 24 -3
v -15 24 -4
v -15 24 -5
v -15 24 -10
v -11 8 17
v -11 8 15
v -11 17 17
v -11 17 16
v -11 18 17
v -11 18 16
v -11 20 17
v -11 20 15
v -11 22 17
v -11 22 15
v -10 0 -16
v -10 0 -20
v -10 3 -16
v -10 3 -18
v -10 4 -16
v -10 4 -18
v -10 9 -18
v -10 9 -20
v -10 10 -18
v -10 10 -20
v -10 13 -17
v -10 13 -20
v -10 16 -17
v -10 16 -20
v -10 28 -16
v -10 28 -18
v -10 29 -16
v -10 29 -18
v -10 30 -16
v -10 30 -20
v -10 32 -16
v -10 32 -17
v -10 33 -16
v -10 33 -17
v -10 33 -20
v -5 8 -12
v -5 8 -14
v -5 11 -12
v -5 11 -13
v -5 12 -12
v -5 12 -13
v -5 17 -13
v -5 17 -14
v -5 18 -13
v -5 18 -14
v -5 23 -12
v -5 23 -13
v -5 24 -12
v -5 24 -13
v -5 26 -12
v -5 26 -14
v -5 28 -12
v -5 28 -14
v -1 7 -1
v -1 7 -10
v -1 15 -6
v -1 15 -8
v -1 16 -6
v -1 16 -8
v -1 19 -9
v -1 19 -10
v -1 20 -9
v -1 20 -10
v -1 21 -1
v -1 21 -10
v -1 23 -1
v -1 23 -10
v 9 13 -17
v 9 13 -20
v 9 16 -17
v 9 16 -20
v -14 8 17
v -14 20 17
v -14 22 17
v -13 17 17
v -13 18 17
v -11 8 17
v -11 17 17
v -11 18 17
v -11 20 17
v -11 22 17
v -12 7 -1
v -12 15 -1
v -12 16 -1
v -12 21 -1
v -12 23 -1
v -10 15 -1
v -10 16 -1
v -5 17 -1
v -5 18 -1
v -3 17 -1
v -3 18 -1
v -1 7 -1
v -1 21 -1
v -1 23 -1
v -17 5 -3
v -17 10 -3
v -17 11 -3
v -17 23 -3
v -17 24 -3
v -16 10 -3
v -16 11 -3
v -16 17 -3
v -16 18 -3
v -15 5 -3
v -15 17 -3
v -15 18 -3
v -15 23 -3
v -15 24 -3
v -20 4 -12
v -20 26 -12
v -20 28 -12
v -19 4 -12
v -19 26 -12
v -19 28 -12
v -8 8 -12
v -8 26 -12
v -8 28 -12
v -6 11 -12
v -6 12 -12
v -6 23 -12
v -6 24 -12
v -5 8 -12
v -5 11 -12
v -5 12 -12
v -5 23 -12
v -5 24 -12
v -5 26 -12
v -5 28 -12
v -20 0 -16
v -20 4 -16
v -19 4 -16
v -19 5 -16
v -19 25 -16
v -19 26 -16
v -19 28 -16
v -19 30 -16
v -19 33 -16
v -17 4 -16
v -17 5 -16
v -17 25 -16
v -17 26 -16
v -16 10 -16
v -16 11 -16
v -14 10 -16
v -14 11 -16
v -14 22 -16
v -14 23 -16
v -12 22 -16
v -12 23 -16
v -11 3 -16
v -11 4 -16
v -11 28 -16
v -11 29 -16
v -11 32 -16
v -11 33 -16
v -10 0 -16
v -10 3 -16
v -10 4 -16
v -10 28 -16
v -10 29 -16
v -10 30 -16
v -10 32 -16
v -10 33 -16
v -10 13 -17
v -10 16 -17
v -1 15 -17
v -1 16 -17
v 0 15 -17
v 0 16 -17
v 5 15 -17
v 5 16 -17
v 6 15 -17
v 6 16 -17
v 9 13 -17
v 9 16 -17
v -14 8 15
v -14 20 15
v -14 21 15
v -14 22 15
v -13 21 15
v -13 22 15
v -11 8 15
v -11 20 15
v -11 22 15
v -17 5 -10
v -17 23 -10
v -17 24 -10
v -15 5 -10
v -15 23 -10
v -15 24 -10
v -12 7 -10
v -12 21 -10
v -12 23 -10
v -2 19 -10
v -2 20 -10
v -1 7 -10
v -1 19 -10
v -1 20 -10
v -1 21 -10
v -1 23 -10
v -8 8 -14
v -8 26 -14
v -8 28 -14
v -6 17 -14
v -6 18 -14
v -5 8 -14
v -5 17 -14
v -5 18 -14
v -5 26 -14
v -5 28 -14
v -20 0 -17
v -20 26 -17
v -20 28 -17
v -19 0 -17
v -19 26 -17
v -19 28 -17
v -19 0 -20
v -19 30 -20
v -19 33 -20
v -11 9 -20
v -11 10 -20
v -10 0 -20
v -10 9 -20
v -10 10 -20
v -10 13 -20
v -10 16 -20
v -10 30 -20
v -10 33 -20
v -3 15 -20
v -3 16 -20
v 2 15 -20
v 2 16 -20
v 9 13 -20
v 9 16 -20
v -20 0 -16
v -10 0 -16
v -20 0 -17
v -19 0 -17
v -19 0 -20
v -10 0 -20
v -20 4 -12
v -19 4 -12
v -20 4 -16
v -19 4 -16
v -17 5 -3
v -15 5 -3
v -17 5 -10
v -15 5 -10
v -12 7 -1
v -1 7 -1
v -12 7 -10
v -1 7 -10
v -14 8 17
v -11 8 17
v -14 8 15
v -11 8 15
v -8 8 -12
v -5 8 -12
v -8 8 -14
v -5 8 -14
v -10 13 -17
v 9 13 -17
v -10 13 -20
v 9 13 -20
v -10 16 -17
v -1 16 -17
v 0 16 -17
v 5 16 -17
v 6 16 -17
v 9 16 -17
v -5 16 -18
v -1 16 -18
v 0 16 -18
v 1 16 -18
v 5 16 -18
v 6 16 -18
v 8 16 -18
v -5 16 -19
v -3 16 -19
v 1 16 -19
v 2 16 -19
v 6 16 -19
v 8 16 -19
v -10 16 -20
v -3 16 -20
v 2 16 -20
v 9 16 -20
v -14 22 17
v -11 22 17
v -14 22 16
v -13 22 16
v -14 22 15
v -13 22 15
v -11 22 15
v -12 23 -1
v -1 23 -1
v -7 23 -3
v -5 23 -3
v -8 23 -4
v -7 23 -4
v -5 23 -4
v -3 23 -4
v -9 23 -5
v -8 23 -5
v -9 23 -6
v -8 23 -6
v -4 23 -6
v -3 23 -6
v -8 23 -7
v -7 23 -7
v -5 23 -7
v -4 23 -7
v -7 23 -8
v -5 23 -8
v -12 23 -10
v -1 23 -10
v -17 24 -3
v -15 24 -3
v -16 24 -4
v -15 24 -4
v -16 24 -5
v -15 24 -5
v -17 24 -6
v -16 24 -6
v -17 24 -8
v -16 24 -8
v -17 24 -10
v -15 24 -10
v -20 28 -12
v -19 28 -12
v -8 28 -12
v -5 28 -12
v -8 28 -14
v -5 28 -14
v -19 28 -16
v -20 28 -17
v -19 28 -17
v -19 33 -16
v -11 33 -16
v -10 33 -16
v -17 33 -17
v -15 33 -17
v -12 33 -17
v -11 33 -17
v -10 33 -17
v -15 33 -18
v -14 33 -18
v -17 33 -19
v -14 33 -19
v -12 33 -19
v -11 33 -19
v -19 33 -20
v -10 33 -20

# faces
f 4/3/1 2/3/1 1/3/1
f 5/3/1 4/3/1 3/3/1
f 6/3/1 4/3/1 5/3/1
f 7/3/1 5/3/1 3/3/1
f 7/4/1 6/4/1 5/4/1
f 8/3/1 4/3/1 6/3/1
f 8/4/1 6/4/1 7/4/1
f 9/3/1 7/3/1 3/3/1
f 9/3/1 8/3/1 7/3/1
f 10/3/1 2/3/1 4/3/1
f 10/3/1 8/3/1 9/3/1
f 10/3/1 4/3/1 8/3/1
f 11/2/1 10/2/1 9/2/1
f 12/2/1 10/2/1 11/2/1
f 15/3/1 14/3/1 13/3/1
f 17/3/1 14/3/1 15/3/1
f 18/3/1 17/3/1 16/3/1
f 19/3/1 14/3/1 17/3/1
f 19/3/1 17/3/1 18/3/1
f 20/2/1 19/2/1 18/2/1
f 21/2/1 19/2/1 20/2/1
f 24/3/1 23/3/1 22/3/1
f 25/3/1 23/3/1 24/3/1
f 26/4/1 25/4/1 24/4/1
f 27/3/1 23/3/1 25/3/1
f 27/4/1 25/4/1 26/4/1
f 28/3/1 27/3/1 26/3/1
f 29/3/1 23/3/1 27/3/1
f 29/3/1 27/3/1 28/3/1
f 30/3/1 23/3/1 29/3/1
f 31/3/1 23/3/1 30/3/1
f 32/2/1 29/2/1 28/2/1
f 33/1/1 30/1/1 29/1/1
f 33/2/1 29/2/1 32/2/1
f 34/2/1 31/2/1 30/2/1
f 34/1/1 30/1/1 33/1/1
f 35/2/1 31/2/1 34/2/1
f 38/3/1 37/3/1 36/3/1
f 39/3/1 37/3/1 38/3/1
f 40/2/1 39/2/1 38/2/1
f 41/2/1 39/2/1 40/2/1
f 42/2/1 40/2/1 38/2/1
f 43/1/1 41/1/1 40/1/1
f 43/2/1 40/2/1 42/2/1
f 44/1/1 41/1/1 43/1/1
f 47/3/1 46/3/1 45/3/1
f 48/3/1 46/3/1 47/3/1
f 49/4/1 48/4/1 47/4/1
f 50/3/1 46/3/1 48/3/1
f 50/4/1 48/4/1 49/4/1
f 51/3/1 50/3/1 49/3/1
f 52/3/1 46/3/1 50/3/1
f 52/3/1 50/3/1 51/3/1
f 53/2/1 52/2/1 51/2/1
f 54/2/1 52/2/1 53/2/1
f 57/3/1 56/3/1 55/3/1
f 58/3/1 56/3/1 57/3/1
f 59/2/1 58/2/1 57/2/1
f 60/2/1 58/2/1 59/2/1
f 61/3/2 62/3/2 63/3/2
f 61/3/2 63/3/2 64/3/2
f 64/3/2 63/3/2 65/3/2
f 61/3/2 64/3/2 66/3/2
f 64/4/2 65/4/2 66/4/2
f 65/3/2 63/3/2 67/3/2
f 66/4/2 65/4/2 67/4/2
f 66/3/2 67/3/2 68/3/2
f 67/3/2 63/3/2 68/3/2
f 61/3/2 66/3/2 69/3/2
f 66/3/2 68/3/2 69/3/2
f 69/3/2 68/3/2 70/3/2
f 69/2/2 70/2/2 71/2/2
f 71/2/2 70/2/2 72/2/2
f 73/3/2 74/3/2 75/3/2
f 75/3/2 74/3/2 76/3/2
f 75/4/2 76/4/2 77/4/2
f 76/3/2 74/3/2 78/3/2
f 77/4/2 76/4/2 78/4/2
f 77/3/2 78/3/2 79/3/2
f 79/3/2 78/3/2 80/3/2
f 78/3/2 74/3/2 81/3/2
f 80/3/2 78/3/2 81/3/2
f 81/3/2 74/3/2 82/3/2
f 79/2/2 80/2/2 83/2/2
f 80/1/2 81/1/2 84/1/2
f 83/2/2 80/2/2 84/2/2
f 81/2/2 82/2/2 85/2/2
f 84/1/2 81/1/2 85/1/2
f 85/2/2 82/2/2 86/2/2
f 87/3/2 88/3/2 89/3/2
f 89/3/2 88/3/2 90/3/2
f 89/4/2 90/4/2 91/4/2
f 90/3/2 88/3/2 92/3/2
f 91/4/2 90/4/2 92/4/2
f 91/3/2 92/3/2 93/3/2
f 92/3/2 88/3/2 94/3/2
f 93/3/2 92/3/2 94/3/2
f 93/2/2 94/2/2 95/2/2
f 95/2/2 94/2/2 96/2/2
f 97/3/2 98/3/2 99/3/2
f 99/3/2 98/3/2 100/3/2
f 99/4/2 100/4/2 101/4/2
f 100/3/2 98/3/2 102/3/2
f 101/4/2 100/4/2 102/4/2
f 101/3/2 102/3/2 103/3/2
f 102/3/2 98/3/2 103/3/2
f 103/3/2 98/3/2 104/3/2
f 101/3/2 103/3/2 105/3/2
f 103/4/2 104/4/2 105/4/2
f 105/4/2 104/4/2 106/4/2
f 101/3/2 105/3/2 107/3/2
f 105/3/2 106/3/2 107/3/2
f 107/3/2 106/3/2 108/3/2
f 101/3/2 107/3/2 109/3/2
f 101/3/2 109/3/2 111/3/2
f 109/3/2 110/3/2 111/3/2
f 111/3/2 110/3/2 112/3/2
f 111/4/2 112/4/2 113/4/2
f 112/3/2 110/3/2 114/3/2
f 113/4/2 112/4/2 114/4/2
f 113/3/2 114/3/2 115/3/2
f 114/3/2 110/3/2 116/3/2
f 115/3/2 114/3/2 116/3/2
f 115/2/2 116/2/2 117/2/2
f 117/2/2 116/2/2 118/2/2
f 117/1/2 118/1/2 119/1/2
f 118/2/2 116/2/2 120/2/2
f 119/1/2 118/1/2 120/1/2
f 120/2/2 116/2/2 121/2/2
f 122/3/2 123/3/2 124/3/2
f 124/3/2 123/3/2 125/3/2
f 124/4/2 125/4/2 126/4/2
f 125/3/2 123/3/2 127/3/2
f 126/4/2 125/4/2 127/4/2
f 126/3/2 127/3/2 128/3/2
f 127/3/2 123/3/2 128/3/2
f 128/3/2 123/3/2 129/3/2
f 126/3/2 128/3/2 130/3/2
f 128/4/2 129/4/2 130/4/2
f 130/4/2 129/4/2 131/4/2
f 126/3/2 130/3/2 132/3/2
f 130/3/2 131/3/2 132/3/2
f 132/3/2 131/3/2 133/3/2
f 132/4/2 133/4/2 134/4/2
f 133/3/2 131/3/2 135/3/2
f 134/4/2 133/4/2 135/4/2
f 134/3/2 135/3/2 136/3/2
f 135/3/2 131/3/2 137/3/2
f 136/3/2 135/3/2 137/3/2
f 136/2/2 137/2/2 138/2/2
f 138/2/2 137/2/2 139/2/2
f 140/3/2 141/3/2 142/3/2
f 142/3/2 141/3/2 143/3/2
f 140/3/2 142/3/2 144/3/2
f 142/4/2 143/4/2 144/4/2
f 143/3/2 141/3/2 145/3/2
f 144/4/2 143/4/2 145/4/2
f 144/3/2 145/3/2 146/3/2
f 145/3/2 141/3/2 146/3/2
f 146/3/2 141/3/2 147/3/2
f 144/3/2 146/3/2 148/3/2
f 146/4/2 147/4/2 148/4/2
f 148/4/2 147/4/2 149/4/2
f 140/3/2 144/3/2 150/3/2
f 144/3/2 148/3/2 150/3/2
f 148/3/2 149/3/2 150/3/2
f 150/3/2 149/3/2 151/3/2
f 150/2/2 151/2/2 152/2/2
f 152/2/2 151/2/2 153/2/2
f 154/2/2 155/2/2 156/2/2
f 156/2/2 155/2/2 157/2/2
f 161/3/3 159/3/3 158/3/3
f 162/3/3 159/3/3 161/3/3
f 163/3/3 161/3/3 158/3/3
f 164/4/3 162/4/3 161/4/3
f 164/3/3 161/3/3 163/3/3
f 165/3/3 159/3/3 162/3/3
f 165/4/3 162/4/3 164/4/3
f 166/2/3 160/2/3 159/2/3
f 166/3/3 159/3/3 165/3/3
f 167/2/3 160/2/3 166/2/3
f 173/3/3 169/3/3 168/3/3
f 173/4/3 170/4/3 169/4/3
f 174/3/3 171/3/3 170/3/3
f 174/4/3 170/4/3 173/4/3
f 175/3/3 174/3/3 173/3/3
f 175/3/3 171/3/3 174/3/3
f 176/3/3 171/3/3 175/3/3
f 177/3/3 175/3/3 173/3/3
f 177/4/3 176/4/3 175/4/3
f 178/3/3 171/3/3 176/3/3
f 178/4/3 176/4/3 177/4/3
f 179/3/3 173/3/3 168/3/3
f 179/3/3 177/3/3 173/3/3
f 179/3/3 178/3/3 177/3/3
f 180/2/3 172/2/3 171/2/3
f 180/3/3 178/3/3 179/3/3
f 180/3/3 171/3/3 178/3/3
f 181/2/3 172/2/3 180/2/3
f 187/3/3 183/3/3 182/3/3
f 187/4/3 184/4/3 183/4/3
f 188/3/3 185/3/3 184/3/3
f 188/4/3 184/4/3 187/4/3
f 189/3/3 185/3/3 188/3/3
f 190/3/3 185/3/3 189/3/3
f 191/3/3 187/3/3 182/3/3
f 191/3/3 188/3/3 187/3/3
f 191/3/3 189/3/3 188/3/3
f 192/4/3 190/4/3 189/4/3
f 192/3/3 189/3/3 191/3/3
f 193/3/3 185/3/3 190/3/3
f 193/4/3 190/4/3 192/4/3
f 194/2/3 186/2/3 185/2/3
f 194/3/3 185/3/3 193/3/3
f 195/2/3 186/2/3 194/2/3
f 199/3/3 197/3/3 196/3/3
f 200/2/3 198/2/3 197/2/3
f 200/3/3 197/3/3 199/3/3
f 201/2/3 198/2/3 200/2/3
f 205/3/3 203/3/3 202/3/3
f 206/3/3 203/3/3 205/3/3
f 207/3/3 203/3/3 206/3/3
f 208/3/3 203/3/3 207/3/3
f 209/3/3 205/3/3 202/3/3
f 210/4/3 206/4/3 205/4/3
f 210/3/3 205/3/3 209/3/3
f 211/3/3 207/3/3 206/3/3
f 211/4/3 206/4/3 210/4/3
f 212/4/3 208/4/3 207/4/3
f 212/3/3 207/3/3 211/3/3
f 213/3/3 203/3/3 208/3/3
f 213/4/3 208/4/3 212/4/3
f 214/2/3 204/2/3 203/2/3
f 214/3/3 203/3/3 213/3/3
f 215/2/3 204/2/3 214/2/3
f 218/3/3 217/3/3 216/3/3
f 225/3/3 218/3/3 216/3/3
f 225/4/3 219/4/3 218/4/3
f 226/3/3 220/3/3 219/3/3
f 226/4/3 219/4/3 225/4/3
f 227/4/3 221/4/3 220/4/3
f 227/3/3 220/3/3 226/3/3
f 228/3/3 223/3/3 222/3/3
f 228/4/3 221/4/3 227/4/3
f 228/3/3 222/3/3 221/3/3
f 229/3/3 227/3/3 226/3/3
f 229/3/3 226/3/3 225/3/3
f 229/3/3 228/3/3 227/3/3
f 230/3/3 228/3/3 229/3/3
f 231/3/3 229/3/3 225/3/3
f 231/4/3 230/4/3 229/4/3
f 232/3/3 228/3/3 230/3/3
f 232/4/3 230/4/3 231/4/3
f 233/3/3 228/3/3 232/3/3
f 234/3/3 228/3/3 233/3/3
f 235/3/3 232/3/3 231/3/3
f 235/3/3 233/3/3 232/3/3
f 235/4/3 234/4/3 233/4/3
f 236/3/3 228/3/3 234/3/3
f 236/4/3 234/4/3 235/4/3
f 237/3/3 225/3/3 216/3/3
f 237/3/3 231/3/3 225/3/3
f 237/3/3 236/3/3 235/3/3
f 237/3/3 235/3/3 231/3/3
f 238/3/3 236/3/3 237/3/3
f 239/3/3 223/3/3 228/3/3
f 239/3/3 236/3/3 238/3/3
f 239/3/3 228/3/3 236/3/3
f 240/3/3 223/3/3 239/3/3
f 241/2/3 224/2/3 223/2/3
f 242/2/3 224/2/3 241/2/3
f 243/3/3 237/3/3 216/3/3
f 244/4/3 238/4/3 237/4/3
f 244/3/3 237/3/3 243/3/3
f 245/3/3 239/3/3 238/3/3
f 245/4/3 238/4/3 244/4/3
f 246/4/3 240/4/3 239/4/3
f 246/3/3 239/3/3 245/3/3
f 247/3/3 223/3/3 240/3/3
f 247/4/3 240/4/3 246/4/3
f 248/2/3 241/2/3 223/2/3
f 248/3/3 223/3/3 247/3/3
f 249/1/3 242/1/3 241/1/3
f 249/2/3 241/2/3 248/2/3
f 250/1/3 242/1/3 249/1/3
f 253/2/3 252/2/3 251/2/3
f 254/2/3 252/2/3 253/2/3
f 255/2/3 253/2/3 251/2/3
f 255/1/3 254/1/3 253/1/3
f 256/1/3 254/1/3 255/1/3
f 257/2/3 255/2/3 251/2/3
f 257/2/3 256/2/3 255/2/3
f 258/2/3 256/2/3 257/2/3
f 259/2/3 257/2/3 251/2/3
f 259/1/3 258/1/3 257/1/3
f 260/1/3 258/1/3 259/1/3
f 261/2/3 259/2/3 251/2/3
f 261/2/3 260/2/3 259/2/3
f 262/2/3 260/2/3 261/2/3
f 264/2/4 265/2/4 267/2/4
f 265/1/4 266/1/4 267/1/4
f 267/1/4 266/1/4 268/1/4
f 263/3/4 264/3/4 269/3/4
f 264/2/4 267/2/4 270/2/4
f 269/3/4 264/3/4 270/3/4
f 267/2/4 268/2/4 270/2/4
f 270/2/4 268/2/4 271/2/4
f 272/3/4 273/3/4 275/3/4
f 273/2/4 274/2/4 276/2/4
f 275/3/4 273/3/4 276/3/4
f 276/2/4 274/2/4 277/2/4
f 278/3/4 279/3/4 281/3/4
f 281/3/4 279/3/4 282/3/4
f 278/3/4 281/3/4 283/3/4
f 281/4/4 282/4/4 284/4/4
f 283/3/4 281/3/4 284/3/4
f 282/3/4 279/3/4 285/3/4
f 284/4/4 282/4/4 285/4/4
f 279/2/4 280/2/4 286/2/4
f 285/3/4 279/3/4 286/3/4
f 286/2/4 280/2/4 287/2/4
f 288/3/4 289/3/4 291/3/4
f 291/3/4 289/3/4 292/3/4
f 288/3/4 291/3/4 293/3/4
f 291/4/4 292/4/4 294/4/4
f 293/3/4 291/3/4 294/3/4
f 292/3/4 289/3/4 295/3/4
f 294/4/4 292/4/4 295/4/4
f 289/2/4 290/2/4 296/2/4
f 295/3/4 289/3/4 296/3/4
f 296/2/4 290/2/4 297/2/4
f 298/3/4 299/3/4 301/3/4
f 299/2/4 300/2/4 302/2/4
f 301/3/4 299/3/4 302/3/4
f 302/2/4 300/2/4 303/2/4
f 304/3/4 305/3/4 307/3/4
f 307/3/4 305/3/4 308/3/4
f 304/3/4 307/3/4 309/3/4
f 307/4/4 308/4/4 310/4/4
f 309/3/4 307/3/4 310/3/4
f 308/3/4 305/3/4 311/3/4
f 310/4/4 308/4/4 311/4/4
f 311/3/4 305/3/4 312/3/4
f 312/3/4 305/3/4 313/3/4
f 305/2/4 306/2/4 314/2/4
f 313/3/4 305/3/4 314/3/4
f 314/2/4 306/2/4 315/2/4
f 312/2/4 313/2/4 316/2/4
f 316/2/4 313/2/4 317/2/4
f 312/2/4 316/2/4 318/2/4
f 316/1/4 317/1/4 318/1/4
f 318/1/4 317/1/4 319/1/4
f 312/2/4 318/2/4 320/2/4
f 318/2/4 319/2/4 320/2/4
f 320/2/4 319/2/4 321/2/4
f 324/3/5 323/3/5 322/3/5
f 325/3/5 323/3/5 324/3/5
f 326/3/5 323/3/5 325/3/5
f 327/3/5 323/3/5 326/3/5
f 330/3/5 329/3/5 328/3/5
f 331/3/5 329/3/5 330/3/5
f 334/3/5 333/3/5 332/3/5
f 335/3/5 333/3/5 334/3/5
f 338/3/5 337/3/5 336/3/5
f 339/3/5 337/3/5 338/3/5
f 342/3/5 341/3/5 340/3/5
f 343/3/5 341/3/5 342/3/5
f 346/3/5 345/3/5 344/3/5
f 347/3/5 345/3/5 346/3/5
f 350/2/5 349/2/5 348/2/5
f 351/2/5 349/2/5 350/2/5
f 352/2/6 353/2/6 358/2/6
f 353/1/6 354/1/6 359/1/6
f 358/2/6 353/2/6 359/2/6
f 354/2/6 355/2/6 360/2/6
f 359/1/6 354/1/6 360/1/6
f 360/2/6 355/2/6 361/2/6
f 355/1/6 356/1/6 362/1/6
f 361/2/6 355/2/6 362/2/6
f 356/2/6 357/2/6 363/2/6
f 362/1/6 356/1/6 363/1/6
f 363/2/6 357/2/6 364/2/6
f 352/2/6 358/2/6 365/2/6
f 358/1/6 359/1/6 365/1/6
f 360/1/6 361/1/6 365/1/6
f 359/1/6 360/1/6 365/1/6
f 365/1/6 361/1/6 366/1/6
f 361/2/6 362/2/6 367/2/6
f 366/1/6 361/1/6 367/1/6
f 362/2/6 363/2/6 367/2/6
f 367/2/6 363/2/6 368/2/6
f 363/1/6 364/1/6 369/1/6
f 368/2/6 363/2/6 369/2/6
f 364/2/6 357/2/6 370/2/6
f 369/1/6 364/1/6 370/1/6
f 365/2/6 366/2/6 371/2/6
f 352/2/6 365/2/6 371/2/6
f 367/1/6 368/1/6 372/1/6
f 371/2/6 366/2/6 372/2/6
f 366/1/6 367/1/6 372/1/6
f 368/2/6 369/2/6 373/2/6
f 372/1/6 368/1/6 373/1/6
f 369/2/6 370/2/6 373/2/6
f 370/2/6 357/2/6 374/2/6
f 373/2/6 370/2/6 374/2/6
f 375/2/6 376/2/6 377/2/6
f 377/2/6 376/2/6 378/2/6
f 377/1/6 378/1/6 379/1/6
f 378/2/6 376/2/6 380/2/6
f 379/1/6 378/1/6 380/1/6
f 380/2/6 376/2/6 381/2/6
f 382/2/6 383/2/6 384/2/6
f 384/2/6 383/2/6 385/2/6
f 382/2/6 384/2/6 386/2/6
f 384/1/6 385/1/6 387/1/6
f 386/2/6 384/2/6 387/2/6
f 385/2/6 383/2/6 388/2/6
f 387/1/6 385/1/6 388/1/6
f 388/2/6 383/2/6 389/2/6
f 382/2/6 386/2/6 390/2/6
f 386/1/6 387/1/6 391/1/6
f 390/2/6 386/2/6 391/2/6
f 387/1/6 388/1/6 391/1/6
f 388/1/6 389/1/6 391/1/6
f 382/2/6 390/2/6 392/2/6
f 390/1/6 391/1/6 392/1/6
f 391/1/6 389/1/6 393/1/6
f 392/1/6 391/1/6 393/1/6
f 393/1/6 389/1/6 394/1/6
f 389/2/6 383/2/6 395/2/6
f 394/1/6 389/1/6 395/1/6
f 393/1/6 394/1/6 396/1/6
f 392/2/6 393/2/6 396/2/6
f 396/1/6 394/1/6 397/1/6
f 397/1/6 394/1/6 398/1/6
f 394/2/6 395/2/6 399/2/6
f 398/1/6 394/1/6 399/1/6
f 397/1/6 398/1/6 400/1/6
f 396/2/6 397/2/6 400/2/6
f 398/2/6 399/2/6 401/2/6
f 400/1/6 398/1/6 401/1/6
f 382/2/6 392/2/6 402/2/6
f 392/2/6 396/2/6 402/2/6
f 400/2/6 401/2/6 402/2/6
f 396/2/6 400/2/6 402/2/6
f 401/2/6 399/2/6 403/2/6
f 402/2/6 401/2/6 403/2/6
f 395/2/6 383/2/6 403/2/6
f 399/2/6 395/2/6 403/2/6
f 404/2/6 405/2/6 406/2/6
f 406/2/6 405/2/6 407/2/6
f 404/2/6 406/2/6 408/2/6
f 406/1/6 407/1/6 408/1/6
f 408/1/6 407/1/6 409/1/6
f 404/2/6 408/2/6 410/2/6
f 408/2/6 409/2/6 410/2/6
f 410/2/6 409/2/6 411/2/6
f 410/1/6 411/1/6 412/1/6
f 411/2/6 409/2/6 413/2/6
f 412/1/6 411/1/6 413/1/6
f 412/2/6 413/2/6 414/2/6
f 413/2/6 409/2/6 415/2/6
f 414/2/6 413/2/6 415/2/6
f 418/2/6 419/2/6 420/2/6
f 420/2/6 419/2/6 421/2/6
f 416/2/6 417/2/6 422/2/6
f 416/2/6 422/2/6 423/2/6
f 423/2/6 422/2/6 424/2/6
f 425/2/6 426/2/6 428/2/6
f 428/2/6 426/2/6 429/2/6
f 429/2/6 426/2/6 430/2/6
f 426/1/6 427/1/6 431/1/6
f 430/2/6 426/2/6 431/2/6
f 431/1/6 427/1/6 432/1/6
f 429/2/6 430/2/6 433/2/6
f 428/1/6 429/1/6 433/1/6
f 433/2/6 430/2/6 434/2/6
f 425/2/6 428/2/6 435/2/6
f 428/1/6 433/1/6 435/1/6
f 433/1/6 434/1/6 435/1/6
f 434/2/6 430/2/6 436/2/6
f 435/1/6 434/1/6 436/1/6
f 430/1/6 431/1/6 437/1/6
f 436/2/6 430/2/6 437/2/6
f 431/2/6 432/2/6 438/2/6
f 437/1/6 431/1/6 438/1/6
f 425/2/6 435/2/6 439/2/6
f 436/2/6 437/2/6 439/2/6
f 437/2/6 438/2/6 439/2/6
f 435/2/6 436/2/6 439/2/6
f 438/2/6 432/2/6 440/2/6
f 439/2/6 438/2/6 440/2/6
